<svg id="Layer_1" data-name="Layer 1" xmlns="http://www.w3.org/2000/svg" xmlns:xlink="http://www.w3.org/1999/xlink" viewBox="0 0 75.38 14.92"><defs><style>.cls-1{fill:#ccc;}.cls-2{fill:url(#linear-gradient);}.cls-3{fill:url(#linear-gradient-2);}.cls-4{fill:url(#linear-gradient-3);}</style><linearGradient id="linear-gradient" x1="3.65" y1="19.32" x2="14.37" y2="19.32" gradientTransform="matrix(0.79, 0.61, -0.61, 0.79, 14.26, -9.38)" gradientUnits="userSpaceOnUse"><stop offset="0" stop-color="#5d3fff"/><stop offset="1" stop-color="#8c55ff"/></linearGradient><linearGradient id="linear-gradient-2" x1="3.49" y1="22.83" x2="14.27" y2="22.83" gradientTransform="matrix(0.8, 0.6, -0.6, 0.8, 14.7, -8.57)" xlink:href="#linear-gradient"/><linearGradient id="linear-gradient-3" x1="3.91" y1="27.28" x2="14.63" y2="27.28" gradientTransform="translate(16.06 -8.59) rotate(38.22)" xlink:href="#linear-gradient"/></defs><path class="cls-1" d="M24.49,11v6.43a2.83,2.83,0,0,1-.68,2,2.3,2.3,0,0,1-1.78.75,2.18,2.18,0,0,1-2-1.26,2.77,2.77,0,0,1-.91,1,2.28,2.28,0,0,1-1.21.29,2.1,2.1,0,0,1-1.74-.75,3.42,3.42,0,0,1-.61-2.19V11h2.51v5.81a1.41,1.41,0,0,0,.07.57.26.26,0,0,0,.26.14c.25,0,.37-.22.37-.67V11h2.51v5.81a1.38,1.38,0,0,0,.07.56.25.25,0,0,0,.26.15c.25,0,.37-.24.37-.71V11Z" transform="translate(-1.9 -7.54)"/><path class="cls-1" d="M31.15,14.45v2H29.51a.79.79,0,0,0-.47.11.41.41,0,0,0-.14.35.41.41,0,0,0,.14.37,1.25,1.25,0,0,0,.58.09h1.69v2.55h-2a3,3,0,0,1-2.13-.7,2.68,2.68,0,0,1-.73-2V13.67a2.74,2.74,0,0,1,.69-2,2.64,2.64,0,0,1,2-.7h2.18v2.56h-1.6c-.43,0-.65.15-.65.45a.41.41,0,0,0,.15.36,1.09,1.09,0,0,0,.56.1Z" transform="translate(-1.9 -7.54)"/><path class="cls-1" d="M37.89,14.45v2H36.25a.83.83,0,0,0-.48.11.41.41,0,0,0-.13.35c0,.19,0,.31.14.37a1.22,1.22,0,0,0,.58.09h1.69v2.55h-2a3,3,0,0,1-2.12-.7,2.69,2.69,0,0,1-.74-2V13.67a2.7,2.7,0,0,1,.7-2,2.6,2.6,0,0,1,2-.7h2.19v2.56h-1.6c-.44,0-.65.15-.65.45a.41.41,0,0,0,.15.36,1,1,0,0,0,.55.1Z" transform="translate(-1.9 -7.54)"/><path class="cls-1" d="M42.63,11v8.93H40.12V11Zm4.82,0-2.23,4,2.22,4.88H44.62L42.71,15l2.16-4Z" transform="translate(-1.9 -7.54)"/><path class="cls-1" d="M52.88,10.94v2.54a1.53,1.53,0,0,0-.42-.1.62.62,0,0,0-.48.23.74.74,0,0,0-.21.53,1.68,1.68,0,0,0,.22.69l.2.35A3.93,3.93,0,0,1,52.71,17a3.07,3.07,0,0,1-.88,2.21,2.85,2.85,0,0,1-2.14.9,2.58,2.58,0,0,1-1.19-.29V17.25a1.11,1.11,0,0,0,.63.25.81.81,0,0,0,.55-.2.65.65,0,0,0,.22-.5,2.74,2.74,0,0,0-.35-.86,4.37,4.37,0,0,1-.57-2.1,3.09,3.09,0,0,1,.85-2.17,2.7,2.7,0,0,1,2-.92A2.75,2.75,0,0,1,52.88,10.94Z" transform="translate(-1.9 -7.54)"/><path class="cls-1" d="M58.79,10.75a4.06,4.06,0,0,1,3.08,1.38,4.74,4.74,0,0,1,1.28,3.31,4.69,4.69,0,0,1-1.29,3.33,4.29,4.29,0,0,1-6.28,0,4.68,4.68,0,0,1-1.29-3.32,4.63,4.63,0,0,1,1.3-3.33A4.29,4.29,0,0,1,58.79,10.75Zm-.07,2.63A1.72,1.72,0,0,0,57.4,14a2.09,2.09,0,0,0-.54,1.45,2,2,0,0,0,.55,1.45,1.68,1.68,0,0,0,1.31.61A1.71,1.71,0,0,0,60,16.9,2.24,2.24,0,0,0,60,14,1.71,1.71,0,0,0,58.72,13.38Z" transform="translate(-1.9 -7.54)"/><path class="cls-1" d="M68.14,15.19v2.39H67.3v2.33H64.79V14.37a3.73,3.73,0,0,1,.92-2.59,2.91,2.91,0,0,1,2.29-1,3.09,3.09,0,0,1,2.56,1.4L68.5,13.74a.64.64,0,0,0-.62-.51c-.38,0-.58.28-.58.85v1.11Z" transform="translate(-1.9 -7.54)"/><path class="cls-1" d="M75.37,13.54v6.37H72.86V13.54H70.94V11h6.35v2.56Z" transform="translate(-1.9 -7.54)"/><path class="cls-2" d="M12.8,15.89,5.56,10.34a1.56,1.56,0,0,1-.3-2.21h0a1.62,1.62,0,0,1,2.25-.25l6,4.56a1.56,1.56,0,0,1,.31,2.21Z" transform="translate(-1.9 -7.54)"/><path class="cls-3" d="M10,18.68,4,14a1.72,1.72,0,0,1-.27-2.36h0A1.61,1.61,0,0,1,6,11.3l6,4.64a1.71,1.71,0,0,1,.26,2.36h0A1.6,1.6,0,0,1,10,18.68Z" transform="translate(-1.9 -7.54)"/><path class="cls-4" d="M8.45,22.12,2.53,17.51a1.57,1.57,0,0,1-.29-2.22l1-1.22,7.2,5.59a1.56,1.56,0,0,1,.29,2.21h0A1.63,1.63,0,0,1,8.45,22.12Z" transform="translate(-1.9 -7.54)"/></svg>